<?xml version="1.0" encoding="utf-8"?>
<!-- Generator: Adobe Illustrator 23.0.1, SVG Export Plug-In . SVG Version: 6.00 Build 0)  -->
<svg version="1.1" id="Layer_1" xmlns="http://www.w3.org/2000/svg" xmlns:xlink="http://www.w3.org/1999/xlink" x="0px" y="0px"
	 viewBox="0 0 150 100" style="enable-background:new 0 0 150 100;" xml:space="preserve">
<style type="text/css">
	.st0{fill-rule:evenodd;clip-rule:evenodd;fill:#D9D9D9;}
	.st1{fill-rule:evenodd;clip-rule:evenodd;fill:#CDB1AA;}
	.st2{fill-rule:evenodd;clip-rule:evenodd;fill:#15994E;}
	.st3{fill-rule:evenodd;clip-rule:evenodd;fill:#FFFFFF;}
	.st4{fill-rule:evenodd;clip-rule:evenodd;fill:#A6A6A6;}
	.st5{fill-rule:evenodd;clip-rule:evenodd;fill:#ABAFB1;}
	.st6{fill-rule:evenodd;clip-rule:evenodd;fill:#F3705A;}
	.st7{fill-rule:evenodd;clip-rule:evenodd;fill:#E74B33;}
	.st8{fill:#FF9624;}
	.st9{fill-rule:evenodd;clip-rule:evenodd;fill:#010101;}
	.st10{fill-rule:evenodd;clip-rule:evenodd;fill:#D31E9C;}
	.st11{fill-rule:evenodd;clip-rule:evenodd;fill:#B9B3B8;}
	.st12{fill-rule:evenodd;clip-rule:evenodd;fill:#F7D3BB;}
	.st13{fill-rule:evenodd;clip-rule:evenodd;fill:#E58857;}
	.st14{fill-rule:evenodd;clip-rule:evenodd;fill:#FFFFFF;filter:url(#Adobe_OpacityMaskFilter);}
	.st15{mask:url(#mask1_1_);}
	.st16{fill-rule:evenodd;clip-rule:evenodd;fill:#7D27C4;}
	.st17{fill-rule:evenodd;clip-rule:evenodd;fill:#D7A17C;}
	.st18{fill-rule:evenodd;clip-rule:evenodd;fill:#7F7F7F;}
	.st19{fill-rule:evenodd;clip-rule:evenodd;fill:#FFE2BD;}
	.st20{fill-rule:evenodd;clip-rule:evenodd;fill:#94C0E9;}
	.st21{fill-rule:evenodd;clip-rule:evenodd;fill:#8D574D;}
	.st22{fill-rule:evenodd;clip-rule:evenodd;fill:#382A2A;}
	.st23{fill-rule:evenodd;clip-rule:evenodd;fill:#1ED346;}
	.st24{fill-rule:evenodd;clip-rule:evenodd;fill:#FFFFFF;filter:url(#Adobe_OpacityMaskFilter_1_);}
	.st25{mask:url(#mask3_1_);}
	.st26{fill-rule:evenodd;clip-rule:evenodd;fill:#302322;}
	.st27{fill-rule:evenodd;clip-rule:evenodd;fill:#F24236;}
	.st28{fill-rule:evenodd;clip-rule:evenodd;fill:#FFFFFF;filter:url(#Adobe_OpacityMaskFilter_2_);}
	.st29{mask:url(#mask4_1_);}
	.st30{fill-rule:evenodd;clip-rule:evenodd;fill:#CBA9E7;}
	.st31{fill-rule:evenodd;clip-rule:evenodd;fill:#FF9624;}
	.st32{fill-rule:evenodd;clip-rule:evenodd;fill:#6D4038;}
	.st33{fill-rule:evenodd;clip-rule:evenodd;fill:#F4F0F0;}
	.st34{fill-rule:evenodd;clip-rule:evenodd;fill:#A62D25;}
</style>
<g>
	<path class="st0" d="M82.6,56.5l-40.9-0.3l3.2-21.9c0.2-1.2,1.2-2.1,2.5-2.1l31.9-0.1c0.7,0,1.4,0.3,2.1,0.8c0.4,0.3,0.8,0.7,1,1.1
		L82.6,56.5z"/>
	<path class="st0" d="M85,31.7c-0.9,0-1.7,0.4-2.1,1.2l-0.6,0.9l0.3,22.6l39.6-0.3l-2.9-22.2c-0.2-1.2-1.2-2.2-2.5-2.2H85z"/>
	<path class="st0" d="M133.2,46.4L120,39.3l2.1,16.8H41.7l2-14.1l-14,5.2c-1,0.4-1.6,1.3-1.6,2.3l-0.4,18.3c0,0.8,0.6,1.4,1.4,1.4
		h105.4c0.8,0,1.5-0.7,1.4-1.5"/>
	<path class="st1" d="M37.9,69.2l-2.5,8c-0.1,0.3-0.4,0.6-0.8,0.6c-0.7,0-1.3-0.6-1.2-1.3l0.9-7.3H37.9z M128.8,69.2l0.9,7.3
		c0.1,0.7-0.5,1.3-1.2,1.3c-0.4,0-0.7-0.2-0.8-0.6l-2.5-8H128.8z"/>
	<path class="st2" d="M54.8,41.9c0.5,0,0.9,0.4,0.9,0.9c0,0.5-0.4,0.9-0.9,0.9c-0.5,0-0.9-0.4-0.9-0.9C54,42.3,54.3,41.9,54.8,41.9z
		 M68.7,41.9c0.5,0,0.9,0.4,0.9,0.9c0,0.5-0.4,0.9-0.9,0.9c-0.5,0-0.9-0.4-0.9-0.9C67.8,42.3,68.2,41.9,68.7,41.9z M93.8,41.9
		c0.5,0,0.9,0.4,0.9,0.9c0,0.5-0.4,0.9-0.9,0.9S93,43.4,93,42.9C93,42.3,93.3,41.9,93.8,41.9z M107.6,41.9c0.5,0,0.9,0.4,0.9,0.9
		c0,0.5-0.4,0.9-0.9,0.9c-0.5,0-0.9-0.4-0.9-0.9C106.7,42.3,107.1,41.9,107.6,41.9z"/>
	<path class="st3" d="M53.5,58.5l-16,3.1c-1.8,0.2-3.5-1.1-3.7-2.9l-1.7-14.5c-0.2-1.8,1.1-3.4,2.9-3.7l16-3.1
		c1.8-0.2,3.5,1.1,3.7,2.9l1.7,14.5C56.7,56.7,55.4,58.3,53.5,58.5z"/>
	<path class="st4" d="M33.3,54.4l12.4,5.8L43,60.7l-9.5-4.4L33.3,54.4z M55.9,50.3l0.3,2.2L51,59l-2.4,0.5L55.9,50.3z M55.2,44.4
		l0.3,2.2l-8.7,10.9l-13.8-6.3l-0.2-1.8l13.6,6.2L55.2,44.4z M54.2,38.9c0.3,0.4,0.4,0.9,0.5,1.4l0.1,0.5l-9.3,11.6l-13.1-6
		l-0.2-1.8l12.9,5.9L54.2,38.9z M51,37.4c0.3,0,0.6,0,0.9,0l-7.5,9.4l-11.5-5.3c0.4-0.5,1-0.8,1.7-1l9.4,4.3l5.8-7.2L51,37.4z
		 M45.9,38.4L43.1,42l-4.6-2.1l2.7-0.5l1.5,0.7l0.9-1.2L45.9,38.4z"/>
	<path class="st5" d="M82.4,33.7c0.1,0,0.2,0.1,0.2,0.1v22.3l27.9-0.1c0.1,0,0.2,0.1,0.2,0.1c0,0.1-0.1,0.2-0.1,0.2l-54,0.3
		c-0.1,0-0.2-0.1-0.2-0.1c0-0.1,0.1-0.2,0.2-0.2l25.7-0.1V33.8C82.2,33.7,82.3,33.7,82.4,33.7z"/>
	<path class="st6" d="M119.2,52.5c-0.9,0-1.6-0.7-1.6-1.6c0-0.9,0.7-1.6,1.6-1.6c0.9,0,1.6,0.7,1.6,1.6
		C120.8,51.8,120.1,52.5,119.2,52.5z M115.9,58.6c-0.7,0.2-1.6-0.2-1.9-1.1c-0.3-0.8,0.1-1.7,0.8-2c0.7-0.2,1.6,0.2,1.9,1.1
		C117,57.5,116.6,58.3,115.9,58.6z M125.1,57.1c0.5,0,0.9,0.2,1.2,0.5c0.1-0.4,0.2-0.8,0.2-1.3v-8.4c0-0.9-0.3-1.8-0.9-2.4
		c-0.1,1.1-1.1,2-2.3,2c-1.3,0-2.3-1-2.3-2.3c0-0.4,0.1-0.8,0.3-1.1l-5.2-0.6c0,0,0,0.1,0,0.1c0,0.8-0.6,1.5-1.3,1.5
		c-0.7,0-1.3-0.7-1.3-1.5c0-0.1,0-0.2,0-0.4l-1-0.1c-2.2-0.2-4.1,1.5-4.1,3.7v0.9c0.2,0,0.3-0.1,0.5-0.1c1.4,0,2.6,1.3,2.6,3
		c0,1.7-1.1,3-2.6,3c-0.2,0-0.3,0-0.5-0.1v1.5c0,1.9,1.4,3.4,3.3,3.7l10.7,1.2c0.4,0,0.8,0,1.2-0.1c-0.3-0.3-0.4-0.7-0.4-1.1
		C123.3,57.8,124.1,57.1,125.1,57.1z"/>
	<path class="st7" d="M125.1,57.1c0.5,0,0.9,0.2,1.2,0.5c-0.4,1.2-1.4,2-2.7,2.3c-0.3-0.3-0.4-0.7-0.4-1.1
		C123.3,57.8,124.1,57.1,125.1,57.1z M114.8,55.6c0.7-0.2,1.6,0.2,1.9,1.1c0.3,0.8-0.1,1.7-0.8,2c-0.7,0.2-1.6-0.2-1.9-1.1
		C113.7,56.7,114.1,55.8,114.8,55.6z M109,47.6c1.4,0,2.6,1.3,2.6,3c0,1.7-1.1,3-2.6,3c-0.2,0-0.3,0-0.5-0.1v-5.9
		C108.6,47.6,108.8,47.6,109,47.6z M119.2,49.2c0.9,0,1.6,0.7,1.6,1.6c0,0.9-0.7,1.6-1.6,1.6c-0.9,0-1.6-0.7-1.6-1.6
		C117.6,50,118.3,49.2,119.2,49.2z M121.4,44l1.9,0.2c1,0.1,1.8,0.6,2.4,1.2c-0.1,1.1-1.1,2-2.3,2c-1.3,0-2.3-1-2.3-2.3
		C121.1,44.7,121.2,44.3,121.4,44z M113.6,43.2l2.6,0.3c0,0,0,0.1,0,0.1c0,0.8-0.6,1.5-1.3,1.5c-0.7,0-1.3-0.7-1.3-1.5
		C113.6,43.4,113.6,43.3,113.6,43.2z"/>
	<path class="st8" d="M22.3,77.9h-0.4v2.6h0.4V77.9z"/>
	<path class="st9" d="M58.9,47.4h8.2c0.1,0,0.2,0.1,0.2,0.2v12c0,0.1-0.1,0.2-0.2,0.2h-8.2c-3.4,0-6.2-2.8-6.2-6.2
		C52.6,50.2,55.4,47.4,58.9,47.4z"/>
	<path class="st9" d="M90.9,77.1l-9-19.3c0-1.9-0.1-2.9-1.4-4.1c-1.6-1.4-8.3-4.6-10.1-5.3c-1.8-0.7-1.7-2-1.7-2H54.5
		c0,0-8.1,13.4,8.8,13.4l7.3,0.1l-8.1,15.8l8.5,4.9l6.1-13L80.7,79L90.9,77.1z"/>
	<path class="st10" d="M82.6,82.8l-1.1-3.9l8.4-1.6l0.4,1.1c0.3,0.7,0.9,1.2,1.7,1.2c1.2,0,2.7,0.2,2.9,1.2l-11.3,2.5
		C83.2,83.5,82.7,83.2,82.6,82.8z"/>
	<path class="st11" d="M92.4,78.9c0.4,0,0.6-0.4,0.4-0.7c-0.1-0.3-0.5-0.3-0.7-0.1L91,79L92.4,78.9z M90.7,79l1.4-1
		c0.3-0.2,0.8-0.1,1,0.2c0.2,0.4-0.1,0.9-0.6,0.9l-1.7,0C90.6,79.1,90.6,79,90.7,79z M91.5,77.6c0.2-0.3-0.1-0.7-0.4-0.7
		c-0.3,0-0.5,0.3-0.5,0.6l0.2,1.4L91.5,77.6z M90.6,79.1l-0.2-1.6c-0.1-0.4,0.2-0.7,0.6-0.7c0.5,0,0.8,0.5,0.6,0.9l-0.8,1.5
		C90.7,79.2,90.6,79.1,90.6,79.1z"/>
	<path class="st10" d="M63,75.9l7.2,4.1l-0.4,1.1c-0.3,0.7-0.1,1.5,0.5,2c0.9,0.8,1.9,1.9,1.4,2.8l-10-5.3c-0.4-0.2-0.6-0.7-0.4-1.1
		L63,75.9z"/>
	<path class="st11" d="M71.2,81.6c0.4-0.1,0.5-0.5,0.3-0.7c-0.2-0.2-0.5-0.3-0.7-0.1l-1,1L71.2,81.6z M71.6,80.7
		c0.3,0.4,0.1,0.9-0.4,1l-0.7,0.1l0.8,0c0.4,0,0.7,0.4,0.6,0.8c-0.1,0.5-0.7,0.7-1,0.4l-1.3-1.1c-0.1,0,0-0.1,0-0.1l1.1-1.1
		C70.9,80.4,71.4,80.4,71.6,80.7z M69.8,82l1.1,0.9c0.3,0.2,0.7,0.1,0.8-0.3c0.1-0.3-0.2-0.5-0.4-0.6L69.8,82z"/>
	<path class="st11" d="M65.1,46.3C65.2,46.3,65.2,46.3,65.1,46.3c0.1,0,0.1,0.1,0.1,0.1c0,0.1,0.1,0.1,0.1,0.2
		c0.2,0.3,0.2,0.7,0.1,1c0,0,0,0,0,0.1c1.1,0,2.3-0.1,3.6-0.1c0,0,0.1,0,0.1,0.1c0,0,0,0.1-0.1,0.1c-0.4,0-0.7,0-1.1,0.1
		c0,0,0,0,0,0c0.1,0.1,0.1,0.2,0.2,0.3c0.3,0.2,0.5,0.4,0.9,0.4c0.3,0,0.5,0,0.7-0.1c0.1,0,0.2,0,0.2-0.1c0,0,0.1,0,0.1,0
		c0,0,0.1,0,0.1,0.1c0,0,0,0.1-0.1,0.1c0,0,0,0-0.1,0c-0.1,0-0.2,0-0.3,0.1c-0.2,0-0.5,0.1-0.7,0.1c-0.4,0-0.7-0.1-1-0.4
		C68,48.1,68,48,67.9,47.9c0,0-0.1-0.1-0.1-0.1c-0.8,0-1.6,0.1-2.4,0.1c0,0,0,0,0,0c0,0,0,0,0,0c0,0-0.1,0-0.1,0c-0.1,0-0.2,0-0.4,0
		c-0.2,0-0.5,0-0.7,0c-0.1,0-0.1,0-0.2,0v0c-0.1,1,0.6,1.9,1.6,2.1c2.4,0.5,5,1.2,7.4,1.8c3.4,1,5.7,1.8,6.4,2.6
		c1.1,1.1,1.7,1.9,2.2,2.6c0.1,0.3,0.2,0.5,0.3,0.6c0,0.1,0.1,0.2,0.1,0.2c0,0,0,0.1-0.1,0.1c0,0-0.1,0-0.1-0.1c0,0,0,0,0,0
		c0,0,0-0.1,0-0.1c-0.1-0.2-0.1-0.4-0.3-0.6c-0.4-0.7-1.1-1.6-2.1-2.6c-0.7-0.7-3-1.6-6.4-2.5c-2.4-0.7-5-1.3-7.3-1.8
		c-1-0.2-1.8-1.2-1.7-2.2c-1.3,0-2.4,0-3.5-0.1c0,0.1,0,0.1,0,0.2c0,0.2-0.1,0.3-0.1,0.5c-0.1,0.4-0.4,0.6-0.7,0.7
		c-0.9,0.3-1.9,0.2-2.7-0.1c-0.2-0.1-0.3-0.1-0.5-0.2c0,0-0.1,0-0.1-0.1c-0.2,0.7-0.2,1.4-0.3,2.1c0,1.5,0.4,2.6,1.3,3.2
		c0.8,0.5,2.1,1,3.8,1.3c1.3,0.3,2.8,0.5,5.1,0.8c0.2,0,0.4,0,0.6,0.1c0.1,0,0.5,0.1,0.6,0.1c2.6,0.3,3.9,0.5,5.2,0.8
		c1.7,0.4,2.8,0.8,3.3,1.3c0.7,0.7,1.6,2.4,2.6,4.9c0.6,1.4,1.1,3.1,1.7,4.9c0.7,2.2,1.4,4.6,2.1,7c0.2,0.8,0.4,1.6,0.6,2.3
		c0.1,0.2,0.1,0.5,0.2,0.6c0,0.1,0,0.1,0,0.2c0,0,0,0,0,0.1c0,0,0,0.1-0.1,0.1c0,0-0.1,0-0.1-0.1c0,0,0,0,0-0.1c0,0,0-0.1,0-0.2
		c0-0.2-0.1-0.4-0.2-0.6c-0.2-0.7-0.4-1.5-0.6-2.3c-0.7-2.4-1.4-4.7-2.1-6.9c-0.6-1.8-1.2-3.5-1.7-4.9c-1-2.5-1.8-4.2-2.5-4.8
		c-0.6-0.5-1.6-1-3.3-1.3c-1.3-0.3-2.6-0.5-5.2-0.8c-0.1,0-0.5-0.1-0.6-0.1c-0.2,0-0.4-0.1-0.6-0.1c-2.3-0.3-3.7-0.5-5.1-0.8
		c-1.7-0.4-3-0.8-3.8-1.3c-1-0.6-1.4-1.8-1.4-3.4c0-1.1,0.2-2.3,0.6-3.5c-0.1,0-0.1,0-0.2,0c-0.6-0.1-1.2-0.2-1.6-0.3
		c-0.1,0-0.3-0.1-0.4-0.1c0,0-0.1,0-0.1,0c0,0,0,0,0,0c0,0-0.1-0.1-0.1-0.1c0,0,0.1-0.1,0.1-0.1c0,0,0,0,0,0c0,0,0.1,0,0.1,0
		c0.1,0,0.2,0.1,0.4,0.1c0.4,0.1,0.9,0.2,1.6,0.3c0.1,0,0.2,0,0.2,0c0,0,0.1,0,0.1,0c0,0,0,0,0.1,0.1c1.6,0.2,3.4,0.3,5.6,0.3v-1.3
		c0,0,0-0.1,0.1-0.1H65.1z M70.6,59.8l3.3,0.3c0.6,0.1,1.1,0.5,1.3,1l2.1,6.4c0,0,0,0.1-0.1,0.1c0,0-0.1,0-0.1-0.1L75,61.1
		c-0.2-0.5-0.6-0.8-1.1-0.9l-1.3-0.1l-8.2,16.5c0,0-0.1,0.1-0.1,0c0,0-0.1-0.1,0-0.1l8.2-16.4l-1.8-0.2
		C70.5,59.9,70.5,59.9,70.6,59.8C70.5,59.8,70.6,59.8,70.6,59.8z M56.6,47.5L56.6,47.5c-0.1,0.4-0.2,0.8-0.3,1.2c0,0,0,0,0,0
		c0,0,0.1,0,0.1,0.1c0.1,0.1,0.3,0.1,0.4,0.2c0.8,0.3,1.7,0.4,2.6,0.1c0.3-0.1,0.5-0.3,0.6-0.6c0.1-0.1,0.1-0.3,0.1-0.5
		c0-0.1,0-0.1,0-0.2c0,0,0,0,0,0C58.8,47.8,57.6,47.7,56.6,47.5z M65.1,46.4h-2.7v1.2c0.3,0,0.7,0,1.4,0c0.1,0,0.3,0,0.4,0
		c0.4,0,0.7,0,1.1,0l0,0c0,0,0-0.1,0-0.1c0.1-0.3,0-0.6-0.1-0.9C65.2,46.6,65.2,46.5,65.1,46.4C65.1,46.5,65.1,46.4,65.1,46.4z"/>
	<path class="st12" d="M66.2,23.8C66.2,23.8,66.2,23.8,66.2,23.8c-0.2,0-0.2,0-0.2-0.1c0,0,0,0,0-0.1c0-2.3-2.3-4.1-5.1-4.1
		c-2.8,0-5.1,1.9-5.1,4.1c0,0,0,0,0,0.1c0,0.1-0.1,0.1-0.1,0.1c0,0-0.1,0-0.1,0c-0.7,0-1.2,0.4-1.2,1c0,0.5,0.5,1,1.2,1
		c0.3,0,0.5-0.1,0.7-0.2c0.1,0,0.1,0,0.2,0c0.7,1,1.9,1.8,3.3,2c0.1,0,0.2,0.1,0.2,0.3l-0.1,2.3H62l-0.1-2.3c0-0.1,0.1-0.2,0.2-0.3
		c1.4-0.3,2.6-1,3.3-2c0-0.1,0.1-0.1,0.2,0c0.2,0.1,0.4,0.2,0.7,0.2c0.7,0,1.2-0.4,1.2-1C67.4,24.2,66.9,23.8,66.2,23.8z"/>
	<path class="st13" d="M66,23.6c0-2.3-2.3-4.1-5.1-4.1c-0.1,0-0.1,0-0.2,0c1.4-0.3,2.4-1.1,2.4-2c-0.1-1-1.3-1.8-2.9-1.8
		c0.6-0.2,1.1-0.7,1.1-1.3c0-0.8-0.7-1.4-1.6-1.4c-0.9,0-1.6,0.6-1.6,1.4c0,0.7,0.6,1.2,1.3,1.3c-1.5,0.2-2.7,1.1-2.6,2.1
		c0.1,1,1.4,1.8,3,1.8c-2.3,0.4-4.1,2.1-4.1,4c0,0,0,0,0,0.1c0,0.1,0,0,0,0c0.5-0.1,3.2-0.2,4.3-3.3c0,0,0,0,0,0
		C61,23.6,66,23.7,66,23.6"/>
	<path class="st9" d="M58.9,24.5c0,0-0.1,0-0.2,0c0,0,0-0.1,0-0.2c0.1-0.1,0.2-0.2,0.3-0.2c0.6-0.3,1.3-0.4,1.9,0.2
		c0.1,0,0.1,0.1,0,0.2c0,0.1-0.1,0.1-0.2,0c-0.5-0.5-1.1-0.5-1.6-0.2C59.1,24.4,59,24.4,58.9,24.5C58.9,24.5,58.9,24.5,58.9,24.5z"
		/>
	<path class="st9" d="M62.5,24.5c0,0.1-0.1,0.1-0.2,0c-0.1,0-0.1-0.1,0-0.2c0-0.1,0.1-0.2,0.3-0.3c0.5-0.4,1.1-0.4,1.9,0.3
		c0,0,0,0.1,0,0.2c0,0-0.1,0-0.2,0c-0.6-0.6-1.1-0.6-1.5-0.3C62.7,24.3,62.6,24.4,62.5,24.5C62.5,24.5,62.5,24.5,62.5,24.5z"/>
	<path class="st7" d="M59.6,25.3h3.2c0.1,0,0.1,0.1,0.1,0.1c0,0.1,0,0.1,0,0.3c0,0.2-0.1,0.4-0.2,0.5c-0.3,0.5-0.8,0.8-1.6,0.8
		c-0.7,0-1.1-0.3-1.4-0.8c-0.1-0.2-0.1-0.4-0.2-0.5c0-0.1,0-0.2,0-0.3C59.5,25.4,59.5,25.3,59.6,25.3z"/>
	<path class="st10" d="M60,26.3c0,0,0.1,0,0.2,0c0.3-0.1,0.6-0.1,0.9,0c0.3,0.1,0.6,0.2,0.8,0.5c0.1,0.1,0,0.2,0,0.2
		c0,0-0.1,0-0.2,0.1c-0.5,0.1-1.1,0.1-1.5-0.2c-0.1-0.1-0.1-0.1-0.2-0.2C59.8,26.5,59.9,26.4,60,26.3C60,26.4,60,26.4,60,26.3z"/>
	<defs>
		<filter id="Adobe_OpacityMaskFilter" filterUnits="userSpaceOnUse" x="50" y="30.1" width="23.5" height="18">
			<feColorMatrix  type="matrix" values="1 0 0 0 0  0 1 0 0 0  0 0 1 0 0  0 0 0 1 0"/>
		</filter>
	</defs>
	<mask maskUnits="userSpaceOnUse" x="50" y="30.1" width="23.5" height="18" id="mask1_1_">
		<path class="st14" d="M51.4,31.4c0,0,3.7-1.3,9.9-1.3c4.3,0,7.5,0.4,10,2.8l-2.6,5.5l1.7,7.9c0,0-7.1,2.7-15.6,0.1l-0.6-9.7
			L51.4,31.4z"/>
	</mask>
	<g class="st15">
		<path class="st16" d="M51.4,31.4c0,0,3.7-1.3,9.9-1.3c4.3,0,7.5,0.4,10,2.8l-2.6,5.5l1.7,7.9c0,0-7.1,2.7-15.6,0.1l-0.6-9.7
			L51.4,31.4z"/>
		<path class="st9" d="M66.4,47.1l0.2,0.8c0,0.1,0,0.1-0.1,0.2c-0.1,0-0.1,0-0.2-0.1l-0.2-0.8c0-0.1,0-0.1,0.1-0.2
			C66.3,47,66.4,47.1,66.4,47.1z M54.1,47.1l0.1,0.8c0,0.1,0,0.1-0.1,0.1c-0.1,0-0.1,0-0.1-0.1l-0.1-0.8c0-0.1,0-0.1,0.1-0.1
			C54,47,54,47,54.1,47.1z M60.6,47.6c0,0.1,0,0.1-0.1,0.2L59.8,48c-0.1,0-0.1,0-0.2-0.1c0-0.1,0-0.1,0.1-0.2l0.8-0.3
			C60.5,47.5,60.6,47.5,60.6,47.6z M51.1,46.8c0,0.1,0,0.1-0.1,0.2l-0.8,0.3c-0.1,0-0.1,0-0.2-0.1c0-0.1,0-0.1,0.1-0.2l0.8-0.3
			C51,46.7,51.1,46.7,51.1,46.8z M70.3,45l0.2,0.8c0,0.1,0,0.1-0.1,0.1c-0.1,0-0.1,0-0.1-0.1l-0.2-0.8c0-0.1,0-0.1,0.1-0.1
			C70.2,44.9,70.3,44.9,70.3,45z M56.2,44.7c0,0.1,0,0.1-0.1,0.2l-0.8,0.3c-0.1,0-0.1,0-0.2-0.1c0-0.1,0-0.1,0.1-0.2l0.8-0.3
			C56.1,44.6,56.2,44.7,56.2,44.7z M65.4,44.9c0.1,0,0.1,0.1,0.1,0.1c0,0.1-0.1,0.1-0.1,0.1h-0.8c-0.1,0-0.1-0.1-0.1-0.1
			c0-0.1,0.1-0.1,0.1-0.1H65.4z M68.7,43.9c0,0.1,0,0.1,0,0.2L68,44.6c-0.1,0-0.1,0-0.2,0c0-0.1,0-0.1,0-0.2l0.6-0.5
			C68.6,43.8,68.6,43.8,68.7,43.9z M61.7,43.4l0.2,0.8c0,0.1,0,0.1-0.1,0.2c-0.1,0-0.1,0-0.2-0.1l-0.2-0.8c0-0.1,0-0.1,0.1-0.2
			C61.6,43.3,61.7,43.4,61.7,43.4z M73.2,43.9c0,0.1,0,0.1-0.1,0.1l-0.8,0.1c-0.1,0-0.1,0-0.1-0.1c0-0.1,0-0.1,0.1-0.1l0.8-0.1
			C73.1,43.7,73.2,43.8,73.2,43.9z M58.8,42.6l0.2,0.8c0,0.1,0,0.1-0.1,0.1c-0.1,0-0.1,0-0.1-0.1l-0.2-0.8c0-0.1,0-0.1,0.1-0.1
			C58.7,42.5,58.7,42.5,58.8,42.6z M53.8,42.5c0.1,0,0.1,0.1,0.1,0.1c0,0.1-0.1,0.1-0.1,0.1H53c-0.1,0-0.1-0.1-0.1-0.1
			c0-0.1,0.1-0.1,0.1-0.1H53.8z M57.1,41.5c0,0.1,0,0.1,0,0.2l-0.6,0.5c-0.1,0-0.1,0-0.2,0c0-0.1,0-0.1,0-0.2l0.6-0.5
			C57,41.4,57.1,41.5,57.1,41.5z M50.6,40.9l0.2,0.8c0,0.1,0,0.1-0.1,0.2c-0.1,0-0.1,0-0.2-0.1l-0.2-0.8c0-0.1,0-0.1,0.1-0.2
			C50.5,40.8,50.6,40.8,50.6,40.9z M64.3,40.9l0.2,0.8c0,0.1,0,0.1-0.1,0.2c-0.1,0-0.1,0-0.2-0.1l-0.2-0.8c0-0.1,0-0.1,0.1-0.2
			C64.3,40.8,64.3,40.8,64.3,40.9z M61.7,41.5c0,0.1,0,0.1-0.1,0.1l-0.8,0.1c-0.1,0-0.1,0-0.1-0.1c0-0.1,0-0.1,0.1-0.1l0.8-0.1
			C61.6,41.3,61.6,41.4,61.7,41.5z M70.3,39.6l0.7,0.4c0.1,0,0.1,0.1,0,0.2c0,0.1-0.1,0.1-0.2,0l-0.7-0.4c-0.1,0-0.1-0.1,0-0.2
			C70.1,39.6,70.2,39.6,70.3,39.6z M67.2,39.2l0.1,0.8c0,0.1,0,0.1-0.1,0.1c-0.1,0-0.1,0-0.1-0.1L67,39.2c0-0.1,0-0.1,0.1-0.1
			C67.1,39,67.2,39.1,67.2,39.2z M52.8,38.5l0.2,0.8c0,0.1,0,0.1-0.1,0.2c-0.1,0-0.1,0-0.2-0.1l-0.2-0.8c0-0.1,0-0.1,0.1-0.2
			C52.7,38.4,52.8,38.4,52.8,38.5z M64.1,38.4c0,0.1,0,0.1-0.1,0.2l-0.8,0.3c-0.1,0-0.1,0-0.2-0.1c0-0.1,0-0.1,0.1-0.2l0.8-0.3
			C64,38.3,64.1,38.3,64.1,38.4z M73.5,38.3c0,0.1,0,0.1-0.1,0.2l-0.8,0.3c-0.1,0-0.1,0-0.2-0.1c0-0.1,0-0.1,0.1-0.2l0.8-0.3
			C73.5,38.2,73.5,38.3,73.5,38.3z M58.7,37.2l0.7,0.4c0.1,0,0.1,0.1,0,0.2c0,0.1-0.1,0.1-0.2,0l-0.7-0.4c-0.1,0-0.1-0.1,0-0.2
			C58.6,37.2,58.7,37.2,58.7,37.2z M55.6,36.8l0.1,0.8c0,0.1,0,0.1-0.1,0.1c-0.1,0-0.1,0-0.1-0.1l-0.1-0.8c0-0.1,0-0.1,0.1-0.1
			C55.6,36.6,55.6,36.7,55.6,36.8z M62.3,36.7c0,0.1,0,0.1-0.1,0.2l-0.8,0.3c-0.1,0-0.1,0-0.2-0.1c0-0.1,0-0.1,0.1-0.2l0.8-0.3
			C62.2,36.6,62.3,36.7,62.3,36.7z M69.4,36.1c0,0.1,0,0.1-0.1,0.2l-0.8,0.3c-0.1,0-0.1,0-0.2-0.1c0-0.1,0-0.1,0.1-0.2l0.8-0.3
			C69.3,36.1,69.4,36.1,69.4,36.1z M52.6,36c0,0.1,0,0.1-0.1,0.2l-0.8,0.3c-0.1,0-0.1,0-0.2-0.1c0-0.1,0-0.1,0.1-0.2l0.8-0.3
			C52.5,35.9,52.5,35.9,52.6,36z M65.1,34.6l0.1,0.8c0,0.1,0,0.1-0.1,0.1c-0.1,0-0.1,0-0.1-0.1l-0.1-0.8c0-0.1,0-0.1,0.1-0.1
			C65,34.5,65.1,34.5,65.1,34.6z M71.9,34l0.2,0.8c0,0.1,0,0.1-0.1,0.1c-0.1,0-0.1,0-0.1-0.1l-0.2-0.8c0-0.1,0-0.1,0.1-0.1
			C71.8,33.9,71.9,34,71.9,34z M57.8,33.7c0,0.1,0,0.1-0.1,0.2L57,34.2c-0.1,0-0.1,0-0.2-0.1c0-0.1,0-0.1,0.1-0.2l0.8-0.3
			C57.7,33.7,57.8,33.7,57.8,33.7z M63.9,31.9l0.6,0.6c0.1,0,0.1,0.1,0,0.2c0,0.1-0.1,0.1-0.2,0l-0.6-0.6c0,0-0.1-0.1,0-0.2
			C63.7,31.9,63.8,31.9,63.9,31.9z M60.1,31.2l0.2,0.8c0,0.1,0,0.1-0.1,0.1c-0.1,0-0.1,0-0.1-0.1l-0.2-0.8c0-0.1,0-0.1,0.1-0.1
			C60.1,31.1,60.1,31.1,60.1,31.2z M55.4,31.5c0.1,0,0.1,0.1,0.1,0.1c0,0.1-0.1,0.1-0.1,0.1h-0.8c-0.1,0-0.1-0.1-0.1-0.1
			c0-0.1,0.1-0.1,0.1-0.1H55.4z M51.7,30.2l0.2,0.8c0,0.1,0,0.1-0.1,0.2c-0.1,0-0.1,0-0.2-0.1l-0.2-0.8c0-0.1,0-0.1,0.1-0.2
			C51.6,30.1,51.7,30.1,51.7,30.2z M69.8,30.5c0,0.1,0,0.1-0.1,0.2L69,31c-0.1,0-0.1,0-0.2-0.1c0-0.1,0-0.1,0.1-0.2l0.8-0.3
			C69.7,30.4,69.8,30.5,69.8,30.5z"/>
	</g>
	<path class="st12" d="M51.5,31.3C51.4,31.3,51.4,31.4,51.5,31.3L51.5,31.3l2.7,5.4l0,0.1l-6.6,2.3c0,0,3.3,2.8,5.8,4.4
		c0.7,0.4,1.2,1,1.5,1.5c0.7,1.2,1,2.6,0.6,4l0,0.1l-0.5,2.7c-0.1,0.4-0.4,0.8-0.7,0.9c-0.2,0.1-0.3,0.1-0.4,0c-0.3-0.2,0-2.3,0-2.3
		s-1.1,2.2-2,2.8c-0.9,0.7-1.2,0.4-1.2,0.3c-0.1-0.3,1-1.9,1.3-2.3c0,0-0.7,0.5-0.9,0.8c-0.2,0.3-0.3,0.7-0.9,1.4
		c-0.3,0.3-0.6,0.3-0.7,0.1c-0.2-0.2-0.3-0.4-0.2-0.7l0,0l0.2-0.8c-1,1.2-1.7,0.5-1.7,0.3c0-0.4,1-1.7,1-1.7c-0.4,0-0.9-0.3-0.7-0.7
		c0.1-0.1,2.8-2.3,2.8-2.3s-3.6-1-7-4.2c-3.4-3.3-4.6-5.7-2.7-8.3C42.5,33.5,47.9,32.1,51.5,31.3z M71.3,32.9c1.7,1.5,4,4,6.1,7.2
		l0.1,0.1l8.7,3.6l4.7-1c0,0,1.8-0.3,1.5,0.3c-0.1,0.2-0.3,0.4-0.5,0.6c-0.4,0.2-1.1,0.5-1.4,0.6c0.8-0.2,2.2-0.5,2.6-0.6
		c0.4-0.1,1.6-0.5,1.7-0.3c0.2,0.2,0.2,0.8-0.2,1c0,0,0.6-0.2,0.7,0.1c0.1,0.4-0.2,0.9-0.9,1.2c0,0,0.4-0.1,0.6,0.1
		c0.1,0.1,0.1,0.4,0,0.5c-0.2,0.4-0.7,0.6-0.7,0.6s0.6,0,0.7,0.3c0,0.1,0,0.5-0.3,0.7c-0.5,0.3-1.7,0.7-3,0.8
		c-2.2,0.2-5.8-0.1-5.8-0.1l0,0c-0.3,0-7.7,0.3-11.5-2.9c0,0-4.5-4.2-5.5-7l0-0.1l-0.1-0.3L71.3,32.9C71.3,32.9,71.3,32.9,71.3,32.9
		z M58.4,30.2c3.8-0.3,6.7,0.1,6.7,0.1s-0.7,1.8-3.2,1.9C59.5,32.3,58.4,30.3,58.4,30.2L58.4,30.2z"/>
	<path class="st17" d="M51.4,49.9c0,0,0,0.1,0,0.1c-0.1,0.1-0.2,0.1-0.3,0.2c-0.5,0.3-0.6,0.4-0.9,0.7c-0.1,0.1-0.1,0.2-0.2,0.4
		c0,0,0,0.1-0.1,0.1c-0.1,0.1-0.1,0.3-0.2,0.4c0,0,0,0.1-0.1,0.1c0,0,0,0,0,0.1c0,0-0.1,0.1-0.1,0c0,0-0.1-0.1,0-0.1c0,0,0,0,0-0.1
		c0,0,0-0.1,0.1-0.1c0.1-0.1,0.1-0.3,0.2-0.4c0,0,0-0.1,0.1-0.1c0.1-0.2,0.2-0.4,0.3-0.5c0.3-0.3,0.5-0.5,1-0.7
		c0.1-0.1,0.2-0.1,0.3-0.2C51.3,49.8,51.4,49.8,51.4,49.9z M52.6,50.4c0,0,0,0.1,0,0.1L52,51.2c0,0-0.1,0-0.1,0c0,0,0-0.1,0-0.1
		l0.6-0.7C52.5,50.4,52.5,50.4,52.6,50.4z M50.3,49.2c0,0,0,0.1,0,0.1c-0.1,0.1-0.3,0.3-0.7,0.7c0,0,0,0,0,0
		c-0.2,0.1-0.3,0.3-0.5,0.5c-0.1,0.1-0.1,0.1-0.2,0.1c0,0-0.1,0-0.1,0.1c0,0-0.1,0-0.1,0c0,0,0-0.1,0-0.1c0,0,0,0,0.1-0.1
		c0.1,0,0.1-0.1,0.2-0.1c0.2-0.2,0.4-0.3,0.5-0.5c0,0,0,0,0,0c0.4-0.3,0.6-0.5,0.7-0.6C50.3,49.2,50.3,49.2,50.3,49.2z M51.7,47.3
		c0,0,0,0.1-0.1,0.1l-0.8,0.3c0,0-0.1,0-0.1,0c0,0,0-0.1,0.1-0.1l0.8-0.3C51.7,47.3,51.7,47.3,51.7,47.3z M94.5,46.9
		c0,0,0,0.1-0.1,0.1c0,0,0,0,0,0c0,0-0.1,0-0.1,0c-0.1,0-0.3,0.1-0.4,0.1c-0.4,0.1-0.8,0.2-1.2,0.2c-0.3,0-0.6,0-0.8-0.1
		c0,0-0.1-0.1-0.1-0.1c0,0,0.1-0.1,0.1-0.1c0.2,0.1,0.5,0.1,0.8,0.1c0.4,0,0.8-0.1,1.2-0.2c0.2,0,0.3-0.1,0.4-0.1c0,0,0.1,0,0.1,0
		c0,0,0,0,0,0C94.4,46.9,94.5,46.9,94.5,46.9z M91.1,44.1C91.1,44.1,91.1,44.2,91.1,44.1l-1.3,0.4c0,0,0,0,0,0.1
		c0,0.4,0,0.9-0.1,1.4c-0.1,0.4-0.1,0.7-0.3,0.9c0,0-0.1,0.1-0.1,0c0,0-0.1-0.1,0-0.1c0.1-0.2,0.2-0.5,0.2-0.9
		c0.1-0.5,0.1-0.9,0.1-1.4c0,0,0-0.1,0-0.1c0,0,0,0,0,0c0,0,0-0.1,0.1-0.1L91,44C91.1,44,91.1,44.1,91.1,44.1z M94.5,45.7
		c0,0,0,0.1-0.1,0.1c0,0,0,0-0.1,0c-0.1,0-0.1,0-0.2,0C94,45.9,93.8,46,93.5,46c-0.7,0.1-1.3,0.2-1.9,0.2c-0.1,0-0.1,0-0.2,0
		c0,0-0.1,0-0.1-0.1c0,0,0-0.1,0.1-0.1c0,0,0.1,0,0.1,0c0.6,0,1.2-0.1,1.9-0.2c0.2,0,0.5-0.1,0.6-0.1c0.1,0,0.1,0,0.2,0
		c0,0,0.1,0,0.1,0C94.4,45.6,94.5,45.7,94.5,45.7z M94.8,44.3c0,0,0,0.1,0,0.1c-0.5,0.4-2.6,0.9-3.6,1c0,0-0.1,0-0.1-0.1
		c0,0,0-0.1,0.1-0.1c1,0,3-0.6,3.5-0.9C94.7,44.3,94.7,44.3,94.8,44.3z M46.7,38.6l1,0.4c0,0,0.1,0.1,0.1,0.1c0,0-0.1,0.1-0.1,0.1
		l-1-0.4c0,0-0.1-0.1-0.1-0.1C46.6,38.6,46.6,38.6,46.7,38.6z"/>
	<path class="st18" d="M101,77.4c0,0,2.1,5.9,4.9,7.3c0,0,1.6,0.7,1.8-1.3l-0.5-6.7l-1.5-1.4L101,77.4z"/>
	<path class="st19" d="M92.6,40c-0.2,2.5,0.9,8.1,1.1,9.2c-3.4,1.9-1.4,7.3-1.4,7.3l7.9,21.2c5.4,0.6,7.9-5.2,7.9-5.2l-8.4-14.9
		c4.5,1.3,6.8,1.9,7,2c0.2,0,12,0,13.7,0c7.7,0,1.8-13.2,1.8-13.2s-2.9,0-8.7,0l-0.2,0c0,0-12-7.3-14.3-8.5
		C96.5,36.7,92.8,37.1,92.6,40z"/>
	<path class="st20" d="M97.9,56.8c0,0,0,0.1,0,0.1l1.5,0.8c0,0,0.1,0,0.1,0c0,0,0-0.1,0-0.1l-1.5-0.8C98,56.7,98,56.8,97.9,56.8z
		 M98.4,46.7c0,0,0,0.1,0,0.1l1.4,1.8l-3-0.1c-1.2,0-2.2,0.1-2.9,0.5c0,0-0.1,0.1,0,0.1c0,0,0.1,0.1,0.1,0c0.7-0.4,1.7-0.5,2.9-0.5
		l12.5,0.5c0,0,0,0,0,0L111,48c0,0,0-0.1,0-0.1s-0.1,0-0.1,0l-1.7,1.1l-9.3-0.4l-1.4-1.9C98.5,46.7,98.4,46.7,98.4,46.7z"/>
	<path class="st21" d="M112.2,23.8C112.2,23.8,112.3,23.8,112.2,23.8c0.2,0,0.2,0,0.2-0.1c0,0,0,0,0-0.1c0-2.3,2.3-4.1,5.1-4.1
		c2.8,0,5.1,1.9,5.1,4.1c0,0,0,0,0,0.1c0,0.1,0.1,0.1,0.1,0.1c0,0,0.1,0,0.1,0c0.7,0,1.2,0.4,1.2,1c0,0.5-0.5,1-1.2,1
		c-0.3,0-0.5-0.1-0.7-0.2c-0.1,0-0.1,0-0.2,0c-0.7,1-1.9,1.8-3.3,2c-0.1,0-0.2,0.1-0.2,0.3l0.1,2.3h-2.2l0.1-2.3
		c0-0.1-0.1-0.2-0.2-0.3c-1.4-0.3-2.6-1-3.3-2c0-0.1-0.1-0.1-0.2,0c-0.2,0.1-0.4,0.2-0.7,0.2c-0.7,0-1.2-0.4-1.2-1
		C111,24.2,111.5,23.8,112.2,23.8z"/>
	<path class="st22" d="M122.7,23.6c0,0-3.8-0.7-4.1-3.1c0,0-0.9,2.9-6.2,3.1c0,0-0.2-1.6,0.9-2.9c1.1-1.3,3.5-1.9,5.5-1.6
		C121.1,19.3,122.9,21.9,122.7,23.6z"/>
	<path class="st23" d="M119.1,13.8c-1.9,0-3.5,1.3-3.5,3c0,0.8,0.4,1.6,1,2.1c-5.1,0.4-4.2,4.7-4.2,4.7l3.7-2.6l6.6,1.9
		c0,0,0-2.4-2.1-3.5c1.2-0.5,2-1.5,2-2.7C122.6,15.1,121,13.8,119.1,13.8z"/>
	<path class="st22" d="M110.8,11.5"/>
	<path class="st22" d="M114.2,10.7"/>
	<path class="st22" d="M118.7,10.3"/>
	<polygon class="st22" points="118.3,25 118.1,25 118.1,25.1 118.3,25.2 118.6,25.1 	"/>
	<defs>
		<filter id="Adobe_OpacityMaskFilter_1_" filterUnits="userSpaceOnUse" x="113.4" y="18.4" width="5.5" height="2.7">
			<feColorMatrix  type="matrix" values="1 0 0 0 0  0 1 0 0 0  0 0 1 0 0  0 0 0 1 0"/>
		</filter>
	</defs>
	<mask maskUnits="userSpaceOnUse" x="113.4" y="18.4" width="5.5" height="2.7" id="mask3_1_">
		<path class="st24" d="M116.1,21.1c0,0,1.9,0.2,2.8-1.8C118.9,19.3,116.9,18.5,116.1,21.1z M113.4,18.4L113.4,18.4
			c0,0.1,0,2.5,2.7,2.7C116.1,21.1,116.2,18.8,113.4,18.4z"/>
	</mask>
	<g class="st25">
		<path class="st2" d="M116.1,21.1c0,0,1.9,0.2,2.8-1.8C118.9,19.3,116.9,18.5,116.1,21.1z M113.4,18.4L113.4,18.4
			c0,0.1,0,2.5,2.7,2.7C116.1,21.1,116.2,18.8,113.4,18.4z"/>
	</g>
	<path class="st26" d="M119.2,24.5c0,0,0.1,0,0.2,0c0,0,0-0.1,0-0.2c-0.1-0.1-0.2-0.2-0.3-0.2c-0.6-0.3-1.3-0.4-1.9,0.2
		c-0.1,0-0.1,0.1,0,0.2c0,0.1,0.1,0.1,0.2,0c0.5-0.5,1.1-0.5,1.6-0.2C119,24.4,119.1,24.4,119.2,24.5
		C119.2,24.5,119.2,24.5,119.2,24.5z"/>
	<path class="st26" d="M113.7,24.4c0,0,0,0.1,0,0.2c0,0,0.1,0,0.2,0c0.6-0.6,1.1-0.6,1.5-0.3c0.1,0.1,0.1,0.1,0.2,0.2
		c0,0,0,0.1,0,0.1c0,0.1,0.1,0.1,0.2,0c0.1,0,0.1-0.1,0-0.2c0-0.1-0.1-0.2-0.3-0.3"/>
	<path class="st7" d="M118.5,25.3h-3.2c-0.1,0-0.1,0.1-0.1,0.1c0,0.1,0,0.1,0,0.3c0,0.2,0.1,0.4,0.2,0.5c0.3,0.5,0.8,0.8,1.6,0.8
		c0.7,0,1.1-0.3,1.4-0.8c0.1-0.2,0.1-0.4,0.2-0.5c0-0.1,0-0.2,0-0.3C118.6,25.4,118.6,25.3,118.5,25.3z"/>
	<path class="st27" d="M118.1,26.3c0,0-0.1,0-0.2,0c-0.3-0.1-0.6-0.1-0.9,0c-0.3,0.1-0.6,0.2-0.8,0.5c0,0.1,0,0.2,0,0.2
		c0,0,0.1,0,0.2,0.1c0.5,0.1,1.1,0.1,1.5-0.2c0.1-0.1,0.1-0.1,0.2-0.2C118.3,26.5,118.3,26.4,118.1,26.3
		C118.1,26.4,118.1,26.4,118.1,26.3z"/>
	<path class="st21" d="M123.4,31.5l-2.1,6.4c0.3,3.4,1.6,11.4,1.6,11.4s-2.1,7.4-2.8,9.2c-0.8,1.9-0.2,4,0.9,5.3
		c0.6,0.8,1.2,1.2,1.5,1.3c0.3,0.1,0.6-0.1,0.6-0.2c0.2-0.2,0.1-0.5,0.1-0.5s0.2,0.2,0.7,0.4c0.8,0.3,1.1-0.5,1.1-0.5
		s0.5,0.4,0.9,0.3c0.4-0.1,0.4-0.5,0.4-0.6v0c0,0,0.8,0.7,1.4,0.2c0.5-0.4-2-4.5-2-4.5s0.3-0.5,1.3-2.8c2.4-5.4,2-10.3,2-10.3
		C128.3,35.1,126.3,32.9,123.4,31.5z M111.3,36.2c0,0-0.7,0.3-0.9,1.1c-0.2,0.8-0.1,1.8-0.1,1.8l-5.7-1.5c0,0-0.3-0.4-3.7,12
		c-0.3,1.2-0.8,3.4,2.6,3.5c1.3,0,2.6-0.4,3.6-1.3c1.5-1.3,4.2-3.9,6.4-7.6c0,0,2.2,0.2,3.2-0.1c0,0,0.7-0.2,0.7-1.1
		c0,0,0.9-0.2,0.8-1.2c0,0,0-0.2-0.2-0.4c0,0,0.7-0.4,0.6-1.1c-0.1-0.5-0.3-0.7-0.3-0.7l0,0c0.1-0.1,0.9-0.9,0.4-1.9
		c-0.5-1-1.2-0.5-1.2-0.5l-0.2,1.2c0,0-1.8,0.6-3.4,0.5c-1.7-0.1-2.3-0.5-2.3-0.5L111.3,36.2z M114.5,30.1c0,0,1.7,1.8,4.2,0
		C118.8,30.1,116.4,29.9,114.5,30.1z"/>
	<defs>
		<filter id="Adobe_OpacityMaskFilter_2_" filterUnits="userSpaceOnUse" x="104.5" y="30.1" width="23.2" height="18.1">
			<feColorMatrix  type="matrix" values="1 0 0 0 0  0 1 0 0 0  0 0 1 0 0  0 0 0 1 0"/>
		</filter>
	</defs>
	<mask maskUnits="userSpaceOnUse" x="104.5" y="30.1" width="23.2" height="18.1" id="mask4_1_">
		<path class="st28" d="M114.5,30.1c-0.2,0-0.5,0-0.7,0.1c-4.1,0.5-7.6,3.2-9.3,7.4c-0.2,0.5,5.7,2.2,5.8,1.5c0-0.3-0.1-1,0.1-1.8
			c0.2-0.8,0.9-1.1,0.9-1.1l0.2,2.1c0,0,0.6,0.4,2.3,0.5c1.7,0.1,3.4-0.5,3.4-0.5l0.2-1.2c0,0,0.6-0.5,1.2,0.5
			c0.5,1-0.4,1.9-0.4,1.9s0.3,0.1,0.3,0.7c0.1,0.8-0.6,1.1-0.6,1.1c0.2,0.1,0.2,0.4,0.2,0.4c0.1,1-0.8,1.2-0.8,1.2
			c0,0.9-0.7,1.1-0.7,1.1c-0.9,0.3-3.2,0.1-3.2,0.1c-0.3,0.5-1.9,2.7-2.2,3.2c2.1,0.2,6.5,0.3,10.6-0.7c0.1,0,0.5-0.1,0.6-0.1
			l-0.6-6.9c0,0,3.9,0.5,5.9-2.2c-1.1-3.7-2.8-5.2-4-5.9c-1.7-0.8-1.8-0.8-3.5-1.2c-0.3-0.1-0.8-0.1-1.5-0.2
			C116.2,31.9,114.5,30.1,114.5,30.1L114.5,30.1z"/>
	</mask>
	<g class="st29">
		<path class="st30" d="M114.5,30.1c-0.2,0-0.5,0-0.7,0.1c-4.1,0.5-7.6,3.2-9.3,7.4c-0.2,0.5,5.7,2.2,5.8,1.5c0-0.3-0.1-1,0.1-1.8
			c0.2-0.8,0.9-1.1,0.9-1.1l0.2,2.1c0,0,0.6,0.4,2.3,0.5c1.7,0.1,3.4-0.5,3.4-0.5l0.2-1.2c0,0,0.6-0.5,1.2,0.5
			c0.5,1-0.4,1.9-0.4,1.9s0.3,0.1,0.3,0.7c0.1,0.8-0.6,1.1-0.6,1.1c0.2,0.1,0.2,0.4,0.2,0.4c0.1,1-0.8,1.2-0.8,1.2
			c0,0.9-0.7,1.1-0.7,1.1c-0.9,0.3-3.2,0.1-3.2,0.1c-0.3,0.5-1.9,2.7-2.2,3.2c2.1,0.2,6.5,0.3,10.6-0.7c0.1,0,0.5-0.1,0.6-0.1
			l-0.6-6.9c0,0,3.9,0.5,5.9-2.2c-1.1-3.7-2.8-5.2-4-5.9c-1.7-0.8-1.8-0.8-3.5-1.2c-0.3-0.1-0.8-0.1-1.5-0.2
			C116.2,31.9,114.5,30.1,114.5,30.1L114.5,30.1z"/>
		<path class="st30" d="M117,45.1c-0.9,0-1.5,0.7-1.5,1.5c0,0.8,0.7,1.5,1.5,1.5s1.6-0.7,1.6-1.5C118.5,45.8,117.8,45.1,117,45.1z
			 M117,45.7c0.5,0,1,0.4,1,0.9c0,0.5-0.4,0.9-1,0.9c-0.5,0-1-0.4-1-0.9C116,46.1,116.4,45.7,117,45.7z M109.2,43.6
			c-0.9,0-1.5,0.7-1.5,1.5c0,0.8,0.7,1.5,1.5,1.5c0.9,0,1.6-0.7,1.6-1.5C110.7,44.3,110,43.6,109.2,43.6z M125.9,43.5
			c-0.9,0-1.6,0.7-1.6,1.5c0,0.8,0.7,1.5,1.6,1.5c0.9,0,1.5-0.7,1.5-1.5C127.5,44.2,126.8,43.5,125.9,43.5z M109.2,44.2
			c0.5,0,1,0.4,1,0.9s-0.4,0.9-1,0.9c-0.5,0-1-0.4-1-0.9S108.6,44.2,109.2,44.2z M125.9,44.1c0.5,0,1,0.4,1,0.9c0,0.5-0.4,0.9-1,0.9
			c-0.5,0-1-0.4-1-0.9C125,44.5,125.4,44.1,125.9,44.1z M118.5,39.2c-0.9,0-1.6,0.7-1.6,1.5s0.7,1.5,1.6,1.5c0.9,0,1.5-0.7,1.5-1.5
			S119.3,39.2,118.5,39.2z M118.5,39.8c0.5,0,1,0.4,1,0.9s-0.4,0.9-1,0.9c-0.5,0-1-0.4-1-0.9S117.9,39.8,118.5,39.8z M112.3,38.5
			c-0.9,0-1.6,0.7-1.6,1.5c0,0.8,0.7,1.5,1.6,1.5s1.6-0.7,1.6-1.5C113.9,39.2,113.2,38.5,112.3,38.5z M112.3,39.1c0.5,0,1,0.4,1,0.9
			c0,0.5-0.4,0.9-1,0.9s-1-0.4-1-0.9C111.4,39.5,111.8,39.1,112.3,39.1z M124,36.9c-0.9,0-1.5,0.7-1.5,1.5c0,0.8,0.7,1.5,1.5,1.5
			c0.9,0,1.6-0.7,1.6-1.5C125.5,37.6,124.9,36.9,124,36.9z M106.5,36.9c-0.9,0-1.6,0.7-1.6,1.5c0,0.8,0.7,1.5,1.6,1.5
			c0.9,0,1.5-0.7,1.5-1.5C108,37.6,107.3,36.9,106.5,36.9z M124,37.5c0.5,0,1,0.4,1,0.9c0,0.5-0.4,0.9-1,0.9c-0.5,0-1-0.4-1-0.9
			C123,37.9,123.5,37.5,124,37.5z M106.5,37.5c0.5,0,1,0.4,1,0.9c0,0.5-0.4,0.9-1,0.9c-0.5,0-1-0.4-1-0.9
			C105.5,37.9,105.9,37.5,106.5,37.5z M111.6,32.6c-0.9,0-1.6,0.7-1.6,1.5c0,0.8,0.7,1.5,1.6,1.5c0.9,0,1.5-0.7,1.5-1.5
			C113.1,33.2,112.4,32.6,111.6,32.6z M118.5,32.6c-0.9,0-1.6,0.7-1.6,1.5c0,0.8,0.7,1.5,1.6,1.5c0.9,0,1.5-0.7,1.5-1.5
			C120,33.2,119.3,32.6,118.5,32.6z M111.6,33.1c0.5,0,1,0.4,1,0.9c0,0.5-0.4,0.9-1,0.9c-0.5,0-1-0.4-1-0.9
			C110.6,33.6,111.1,33.1,111.6,33.1z M118.5,33.1c0.5,0,1,0.4,1,0.9c0,0.5-0.4,0.9-1,0.9c-0.5,0-1-0.4-1-0.9
			C117.5,33.6,117.9,33.1,118.5,33.1z M124.3,31c-0.9,0-1.6,0.7-1.6,1.5c0,0.8,0.7,1.5,1.6,1.5c0.9,0,1.5-0.7,1.5-1.5
			C125.9,31.7,125.2,31,124.3,31z M124.3,31.6c0.5,0,1,0.4,1,0.9c0,0.5-0.4,0.9-1,0.9c-0.5,0-1-0.4-1-0.9
			C123.4,32,123.8,31.6,124.3,31.6z M106.1,30.4c-0.9,0-1.5,0.7-1.5,1.5s0.7,1.5,1.5,1.5c0.9,0,1.6-0.7,1.6-1.5
			S106.9,30.4,106.1,30.4z M106.1,31c0.5,0,1,0.4,1,0.9c0,0.5-0.4,0.9-1,0.9c-0.5,0-1-0.4-1-0.9C105.1,31.4,105.5,31,106.1,31z"/>
	</g>
	<path class="st31" d="M117.3,38.3l0.5-4h-6.6l0.4,4C111.5,38.3,113.4,39.7,117.3,38.3z"/>
	<path class="st31" d="M110.7,34.3h7.4l-0.2-1h-7.1L110.7,34.3z"/>
	<path class="st31" d="M113.6,29.4h0.4c0.1,0,0.2,0.1,0.2,0.2l0.2,3.7h-0.9l-0.2-3.7C113.3,29.5,113.4,29.4,113.6,29.4z"/>
	<path class="st32" d="M121.4,61.9c0,0-0.1,0.1,0,0.1c0.1,0.2,0.2,0.4,0.4,0.7c0.1,0.2,0.3,0.4,0.4,0.6c0.2,0.3,0.5,0.5,0.7,0.8
		c0.1,0.1,0.2,0.2,0.2,0.2c0,0,0,0,0.1,0.1c0,0,0,0,0,0c0,0,0.1,0,0.1,0c0,0,0-0.1,0-0.1c0,0,0,0,0,0c0,0,0,0-0.1-0.1
		c-0.1-0.1-0.1-0.1-0.2-0.2c-0.2-0.2-0.5-0.5-0.7-0.8c-0.2-0.2-0.3-0.4-0.4-0.6c-0.2-0.3-0.3-0.5-0.4-0.7
		C121.5,61.9,121.5,61.9,121.4,61.9z M123.1,61.8c0,0-0.1,0.1,0,0.1c0,0,0,0,0,0c0,0,0,0.1,0,0.1c0.1,0.1,0.1,0.2,0.2,0.3
		c0.2,0.3,0.4,0.6,0.6,0.9c0.1,0.2,0.3,0.4,0.4,0.5c0.3,0.4,0.5,0.6,0.7,0.7c0,0,0.1,0,0.1,0c0,0,0-0.1,0-0.1
		c-0.2-0.1-0.4-0.3-0.7-0.7c-0.1-0.1-0.2-0.3-0.4-0.5c-0.2-0.3-0.4-0.6-0.6-0.9c-0.1-0.1-0.1-0.2-0.2-0.3c0,0,0-0.1,0-0.1
		c0,0,0,0,0,0C123.2,61.8,123.1,61.7,123.1,61.8z M124.5,61.1c0,0-0.1,0.1,0,0.1c0,0,0,0,0,0c0,0,0,0.1,0,0.1
		c0.1,0.1,0.1,0.2,0.2,0.3c0.2,0.3,0.4,0.7,0.6,1c0.1,0.1,0.2,0.3,0.3,0.4c0.3,0.5,0.6,0.8,0.8,1c0,0,0.1,0,0.1,0c0,0,0-0.1,0-0.1
		c-0.2-0.1-0.4-0.5-0.8-0.9c-0.1-0.1-0.2-0.3-0.3-0.4c-0.2-0.3-0.4-0.6-0.6-1c-0.1-0.1-0.1-0.2-0.2-0.3c0,0,0-0.1,0-0.1l0,0
		c0,0,0,0,0,0C124.6,61.1,124.5,61.1,124.5,61.1z M124.3,48.7c-0.2,0-0.5,0.1-0.7,0.2c-0.3,0.1-0.5,0.2-0.6,0.3
		c-0.1,0.1-0.1,0.1-0.2,0.1c0,0,0,0.1,0,0.1c0,0,0.1,0,0.1,0c0,0,0,0,0.1-0.1c0.1-0.1,0.3-0.2,0.6-0.2c0.2-0.1,0.4-0.1,0.6-0.2
		C124.3,48.9,124.4,48.8,124.3,48.7C124.3,48.7,124.3,48.7,124.3,48.7z M110.4,39C110.3,39,110.3,39,110.4,39L110.4,39
		c-0.1,0.1-0.1,0.1-0.1,0.1c0,0,0,0,0,0.1c0,0.1,0,0.2,0,0.3c0,0.3,0,0.6-0.1,0.8c0,0.2,0,0.3,0,0.4c0,0,0,0,0,0
		c0,0-0.1,0.1-0.2,0.1c-0.2,0.1-0.4,0.3-0.6,0.5c-0.6,0.5-1.2,1-1.8,1.5c-0.2,0.1-0.3,0.3-0.5,0.4c-0.7,0.6-1.2,1.1-1.6,1.5
		c0,0,0,0.1,0,0.1c0,0,0.1,0,0.1,0c0.4-0.4,0.9-0.9,1.5-1.5c0.2-0.1,0.3-0.3,0.5-0.4c0.6-0.5,1.2-1,1.8-1.5c0.2-0.2,0.4-0.3,0.6-0.5
		c0.1,0,0.1-0.1,0.2-0.1c0,0,0,0,0.1,0c0,0,0,0,0-0.1c0-0.1,0-0.3,0-0.5c0-0.3,0-0.5,0.1-0.8c0-0.1,0-0.2,0-0.3c0,0,0-0.1,0-0.1
		C110.4,39.1,110.4,39.1,110.4,39C110.4,39,110.4,39,110.4,39z M117.3,42.8C117.3,42.8,117.3,42.8,117.3,42.8c-0.1,0-0.1,0-0.1,0
		c-0.1,0-0.2,0.1-0.4,0.1c-0.4,0.1-0.8,0.1-1.2,0.1c0,0-0.1,0-0.1,0.1s0,0.1,0.1,0.1c0.5,0,0.9-0.1,1.3-0.1c0.1,0,0.3-0.1,0.4-0.1
		c0,0,0.1,0,0.1,0c0,0,0,0,0,0c0,0,0.1-0.1,0-0.1C117.4,42.8,117.4,42.7,117.3,42.8z M117.9,41.2C117.9,41.2,117.9,41.2,117.9,41.2
		c-0.1,0.1-0.2,0.1-0.3,0.1c-0.5,0.1-1.1,0.2-2,0.1c0,0-0.1,0-0.1,0.1c0,0,0,0.1,0.1,0.1c0.9,0.1,1.6,0.1,2.1-0.1
		c0.2,0,0.3-0.1,0.3-0.1c0,0,0-0.1,0-0.1C118,41.2,117.9,41.2,117.9,41.2z M118.2,39.4C118.2,39.4,118.2,39.4,118.2,39.4
		c-0.1,0-0.1,0.1-0.2,0.1c-0.2,0.1-0.3,0.1-0.6,0.2c-0.5,0.1-1,0.2-1.6,0.2c0,0-0.1,0-0.1,0.1c0,0,0,0.1,0.1,0.1
		c0.6,0,1.2-0.1,1.6-0.3c0.2-0.1,0.4-0.1,0.6-0.2c0.1,0,0.1,0,0.1-0.1c0,0,0,0,0.1,0c0,0,0.1-0.1,0-0.1
		C118.3,39.4,118.2,39.4,118.2,39.4z M117.6,37.8c0,0,0,0.1-0.1,0.1c-0.1,0.1-0.3,0.3-0.6,0.4c-0.5,0.2-1.4,0.4-2.6,0.5
		c0,0-0.1,0-0.1,0.1c0,0,0,0.1,0.1,0.1c1.2-0.1,2.1-0.3,2.6-0.5c0.3-0.1,0.5-0.3,0.6-0.4c0.1-0.1,0.1-0.2,0.1-0.2
		C117.7,37.7,117.7,37.7,117.6,37.8C117.6,37.7,117.6,37.7,117.6,37.8z"/>
	<path class="st31" d="M25.5,77.5h3.6l-7.4,11.7c-0.2,0.4-0.7,0.6-1.1,0.6c-0.6,0-0.9-0.6-0.7-1.1L25.5,77.5z"/>
	<path class="st31" d="M53.1,77.5h-3.6l7.4,11.7c0.2,0.4,0.7,0.6,1.1,0.6c0.6,0,0.9-0.6,0.7-1.1L53.1,77.5z"/>
	<path class="st31" d="M64.6,74.4c0,3.7-11.3,6.7-25.3,6.7s-25.3-3-25.3-6.7c0-3.7,11.3-6.7,25.3-6.7S64.6,70.7,64.6,74.4z"/>
	<path class="st31" d="M31.4,72.2l8.2-0.4l0.4,0.3v0.6l-8.8,5.6L22.6,78l0-0.7L31.4,72.2z"/>
	<path class="st33" d="M31.2,77.7l8.4-5.4v-1.8l-8.4,5.3l-8.6-0.3v2L31.2,77.7z"/>
	<path class="st16" d="M31.4,70l8.6,0.3l-0.4,0.6v-0.4l-8.4,5.3l-8.6-0.1l-0.2-0.3L31.4,70z"/>
	<path class="st27" d="M47.7,69.7h4.8l-0.2,3c-0.1,0.9-0.8,1.6-1.7,1.6h-0.9c-0.9,0-1.7-0.7-1.7-1.6L47.7,69.7z"/>
	<path class="st27" d="M52,73.3l0.1-0.6c0.8-0.1,1.8-0.4,1.8-1.6c0-0.4-0.2-0.5-0.2-0.5c-0.3-0.2-1.1,0-1.4,0.2L52,70.3
		c0.1-0.1,1.3-0.6,2-0.2c0.2,0.1,0.5,0.4,0.5,1C54.4,72.3,53.4,73.1,52,73.3z"/>
	<path class="st34" d="M52.5,69.7c0,0.4-1.1,0.7-2.4,0.7c-1.3,0-2.4-0.3-2.4-0.7s1.1-0.7,2.4-0.7C51.4,69,52.5,69.3,52.5,69.7z"/>
	<path class="st33" d="M54,66.7c0.1,0,0.1,0,0.1,0.1c0,0.4-0.2,0.8-0.5,1.1c-0.2,0.2-0.5,0.4-1,0.7c-0.5,0.3-0.8,0.5-1,0.7
		c-0.3,0.3-0.4,0.6-0.4,1c0,0-0.1,0-0.1,0c-0.1,0-0.1,0-0.1,0c0-0.4,0.2-0.8,0.5-1.1c0.2-0.2,0.5-0.4,1-0.7c0.5-0.3,0.8-0.5,1-0.7
		c0.3-0.3,0.4-0.6,0.4-1C53.9,66.7,53.9,66.7,54,66.7z M50.7,65.3c0.7,0.5,1,0.9,1,1.5c0,0.4-0.2,0.8-0.5,1.1
		c-0.2,0.2-0.5,0.4-1,0.7c-0.1,0.1-0.2,0.1-0.2,0.1c-0.8,0.5-1.2,0.9-1.2,1.5c0,0,0,0-0.1,0c-0.1,0-0.1,0-0.1,0
		c0-0.7,0.4-1.1,1.3-1.6c0.1,0,0.1-0.1,0.2-0.1c0.5-0.3,0.8-0.5,1-0.7c0.3-0.3,0.4-0.6,0.4-1c0-0.6-0.3-1-0.9-1.4c0,0-0.1-0.1,0-0.1
		C50.5,65.3,50.6,65.3,50.7,65.3z"/>
</g>
</svg>
